<svg xmlns="http://www.w3.org/2000/svg" viewBox="0 0 310.56 486.39"><title>Asset 1</title><g id="Layer_2" data-name="Layer 2"><g id="Layer_1-2" data-name="Layer 1"><rect x="43.28" y="413" width="225" height="36" transform="translate(-138.02 79.27) rotate(-20)"/><path d="M245.28,58l-33,49-57-107-57,107-33-49s-102,106-51,224c0,0,42,94,141,92,99,2,141-92,141-92C347.28,164,245.28,58,245.28,58Zm-6,226s-34,43-84,42c-50,1-84-42-84-42-46-52-7-143-7-143l40,56,51-96,51,96,40-56S285.28,232,239.28,284Z"/><rect x="43.28" y="413" width="225" height="36" transform="translate(154.75 889.29) rotate(-160)"/></g></g></svg>